<?xml version="1.0" standalone="no"?>
<!DOCTYPE svg PUBLIC "-//W3C//DTD SVG 20010904//EN"
 "http://www.w3.org/TR/2001/REC-SVG-20010904/DTD/svg10.dtd">
<svg version="1.0" xmlns="http://www.w3.org/2000/svg"
 width="532.000000pt" height="532.000000pt" viewBox="0 0 532.000000 532.000000"
 preserveAspectRatio="xMidYMid meet">
<metadata>
Created by potrace 1.14, written by Peter Selinger 2001-2017
</metadata>
<g transform="translate(0.000000,532.000000) scale(0.100000,-0.100000)"
fill="#000000" stroke="none">
<path d="M1435 5214 c-385 -49 -697 -198 -961 -459 -104 -104 -140 -148 -216
-265 -130 -200 -207 -403 -242 -640 -14 -92 -16 -248 -13 -1235 3 -1108 4
-1132 24 -1227 96 -438 340 -795 703 -1030 170 -111 352 -185 561 -230 l104
-23 1140 0 c627 0 1165 3 1195 7 601 78 1117 505 1308 1084 37 109 67 250 77
349 2 22 4 184 4 361 l1 321 25 11 c46 21 122 102 146 155 22 48 24 66 26 252
2 165 0 209 -14 253 -19 60 -91 147 -147 177 l-36 20 -1 315 c0 359 -2 386
-30 530 -75 377 -299 729 -612 963 -188 140 -394 232 -642 289 l-100 22 -1135
2 c-624 1 -1148 0 -1165 -2z"/>
</g>
</svg>
